<svg id="visual" viewBox="0 0 900 600" width="900" height="600" xmlns="http://www.w3.org/2000/svg" xmlns:xlink="http://www.w3.org/1999/xlink" version="1.1"><rect x="0" y="0" width="900" height="600" fill="#001220"></rect><path d="M0 480L25 456.2C50 432.3 100 384.7 150 384.5C200 384.3 250 431.7 300 447.8C350 464 400 449 450 449.8C500 450.7 550 467.3 600 451.7C650 436 700 388 750 365.2C800 342.3 850 344.7 875 345.8L900 347L900 601L875 601C850 601 800 601 750 601C700 601 650 601 600 601C550 601 500 601 450 601C400 601 350 601 300 601C250 601 200 601 150 601C100 601 50 601 25 601L0 601Z" fill="#fa7268"></path><path d="M0 380L25 390C50 400 100 420 150 435.3C200 450.7 250 461.3 300 459.3C350 457.3 400 442.7 450 435.3C500 428 550 428 600 444.8C650 461.7 700 495.3 750 491.5C800 487.7 850 446.3 875 425.7L900 405L900 601L875 601C850 601 800 601 750 601C700 601 650 601 600 601C550 601 500 601 450 601C400 601 350 601 300 601C250 601 200 601 150 601C100 601 50 601 25 601L0 601Z" fill="#e34c67"></path><path d="M0 525L25 530C50 535 100 545 150 550.2C200 555.3 250 555.7 300 551.8C350 548 400 540 450 524.7C500 509.3 550 486.7 600 474.8C650 463 700 462 750 468C800 474 850 487 875 493.5L900 500L900 601L875 601C850 601 800 601 750 601C700 601 650 601 600 601C550 601 500 601 450 601C400 601 350 601 300 601C250 601 200 601 150 601C100 601 50 601 25 601L0 601Z" fill="#c62368"></path></svg>